<svg xmlns="http://www.w3.org/2000/svg" width="200" height="200"><path fill="#696868" d="M17.68 154.95l-15.75 43.4h12.9l2.35-7.62H30.2l2.35 7.62h13.03l-15.75-43.4zm42.7 0v43.4H81.2c10.93 0 16.32-5.14 16.32-14 0-4.9-2.3-7.95-6.2-9.62 2.9-1.68 5.2-3.78 5.2-8.5 0-7.25-4.4-11.28-15.18-11.28zm52.65 0v43.4h33.66v-10.1h-21.77v-7.44h12.83v-9.98h-12.83v-5.76h21.33v-10.1zm48.7 0v10.48h12.16v32.92h12.02v-32.92h12.15v-10.48zm-89.82 9.5h9.06c2.86 0 3.8 1.48 3.8 3.4 0 2.04-1 3.4-3.8 3.4H71.9zm-48.2 3.03c.55 2.9 1.23 5.27 2.78 10.85l.8 2.85h-7.2l.82-2.85c1.55-5.52 2.23-7.94 2.8-10.85zm48.2 12.95h9.56c2.86 0 4.28 1.62 4.28 4.16 0 2.47-1.36 4.27-4.34 4.27h-9.5z"/><path fill="#f36c38" d="M99.64 17.92C73.5 17.92 52.2 39.2 52.2 65.35c0 26.16 21.3 47.44 47.44 47.44 26.15 0 47.43-21.3 47.43-47.45 0-26.15-21.28-47.43-47.43-47.43m0 111.14c-35.13 0-63.7-28.58-63.7-63.7 0-35.14 28.57-63.7 63.7-63.7s63.7 28.56 63.7 63.7c0 35.12-28.57 63.7-63.7 63.7"/></svg>